<?xml version="1.0" encoding="UTF-8"?>
<svg width="1200pt" height="1200pt" version="1.1" viewBox="0 0 1200 1200" xmlns="http://www.w3.org/2000/svg">
 <path d="m978.79 522.28c0-27 21.891-48.844 48.844-48.844 27 0 48.891 21.891 48.891 48.844v476.81c0 94.172-76.688 170.86-170.9 170.86l-704.76 0.046875c-94.172 0-170.86-76.688-170.86-170.86v-704.76c0-94.172 76.688-170.86 170.86-170.86h602.06c27 0 48.844 21.891 48.844 48.844 0 27-21.891 48.844-48.844 48.844h-602.06c-40.219 0-73.172 32.906-73.172 73.172v704.76c0 40.219 32.906 73.172 73.172 73.172h704.76c40.219 0 73.172-32.953 73.172-73.172zm102.66-471.47-488.81 698.44c-5.7656 8.25-18.047 9.375-24.375 0.1875l-144.98-209.68c-15.281-22.125-45.609-27.703-67.781-12.422-22.125 15.281-27.703 45.609-12.375 67.781l144.94 209.68c44.344 64.125 139.08 64.875 184.36 0.1875l488.81-698.44c15.375-22.031 10.031-52.359-12.047-67.781-22.031-15.375-52.359-10.031-67.781 12.047z" fill-rule="evenodd"/>
</svg>
