<?xml version="1.0" encoding="UTF-8"?>
<svg width="1200pt" height="1200pt" version="1.1" viewBox="0 0 1200 1200" xmlns="http://www.w3.org/2000/svg">
 <path d="m844.31 686.63v267.19h-101.62v-219.19c0-5.25-4.125-9.375-9.375-9.375s-9.375 4.125-9.375 9.375v219.19h-247.87v-219.19c0-5.25-4.125-9.375-9.375-9.375s-9.375 4.125-9.375 9.375v219.19h-101.62v-267.19c0-72.75 53.062-133.31 122.63-144.94 38.062-3.75 207.19-3.375 243.37 0 69.562 11.625 122.63 72.188 122.63 144.94zm-338.63-203.26c84.188 82.312 233.26 19.5 231.56-99.75 1.6875-117.94-145.31-181.5-229.87-101.25-57.938 48.75-58.688 151.31-1.6875 201zm-79.5 56.25h-74.625c-107.44 0-195 87.562-195 195v219.19h101.62v-219.19c0-5.25 4.125-9.375 9.375-9.375s9.375 4.125 9.375 9.375v219.19h60v-267.19c0-63.75 36.375-119.25 89.25-147zm-25.5-18.75c31.5 0 61.688-10.688 85.875-30.375-55.875-54.375-55.875-159.37 0-213.74-86.625-73.125-224.81-6.5625-223.13 106.69 0 75.75 61.5 137.44 137.26 137.44zm447.74 18.75h-74.625c52.875 27.75 89.25 83.25 89.25 147v267.19h60v-219.19c0-5.25 4.3125-9.375 9.375-9.375s9.375 4.125 9.375 9.375v219.19h101.62v-219.19c0-107.44-87.562-195-195-195zm-135-49.125c87.188 72.562 224.63 6.375 223.13-107.06 1.6875-113.25-136.13-179.44-223.13-106.88 55.875 54.188 56.062 159.56 0 213.94z" fill="#fff"/>
</svg>
