<?xml version="1.0" encoding="UTF-8"?>
<svg width="1200pt" height="1200pt" version="1.1" viewBox="0 0 1200 1200" xmlns="http://www.w3.org/2000/svg">
 <path d="m495.6 508.8c58.801-16.801 87.602-98.398 63.602-181.2-24-82.801-91.199-136.8-150-120-58.801 16.801-87.602 98.398-63.602 181.2s91.199 136.8 150 120z" fill="#fff"/>
 <path d="m772.29 206.73c58.633 16.746 86.836 97.996 62.996 181.48-23.844 83.484-90.699 137.59-149.33 120.85-58.633-16.742-86.836-97.992-62.996-181.48 23.844-83.484 90.699-137.59 149.33-120.85" fill="#fff"/>
 <path d="m392.51 526.38c33.352 72.926 18.859 151.04-32.371 174.47-51.227 23.43-119.79-16.699-153.14-89.625-33.352-72.926-18.859-151.04 32.367-174.46 51.23-23.43 119.8 16.695 153.15 89.621" fill="#fff"/>
 <path d="m957.3 421.98c51.23 23.426 65.723 101.54 32.371 174.46s-101.92 113.05-153.15 89.625c-51.227-23.43-65.719-101.54-32.367-174.47s101.92-113.05 153.14-89.621" fill="#fff"/>
 <path d="m416.4 715.2s-130.8 232.8-14.398 261.6c116.4 28.801 130.8-43.199 218.4-43.199 87.602 0 102 73.199 189.6 43.199 87.602-28.801 102-87.602-14.398-261.6-117.6-175.2-291.6-130.8-379.2 0z" fill="#fff"/>
</svg>
