<?xml version="1.0" encoding="UTF-8"?>
<svg width="1200pt" height="1200pt" version="1.1" viewBox="0 0 1200 1200" xmlns="http://www.w3.org/2000/svg">
 <path d="m621.38 141.21c-179.81 0-340.56 104.83-415.26 263.12l-17.234-56.527c-2.6758-8.9961-8.8281-16.559-17.098-21.008-8.2656-4.4492-17.965-5.4219-26.949-2.7031-8.9492 2.7344-16.441 8.9102-20.836 17.172-4.3945 8.2578-5.332 17.926-2.6016 26.875l43.223 142.21c2.6875 8.7656 8.6758 16.141 16.703 20.566 8.0312 4.4258 17.465 5.5547 26.309 3.1484l139.39-38.055c9.0625-2.4648 16.77-8.4375 21.414-16.602 4.6445-8.1641 5.8438-17.844 3.332-26.895-2.4688-9.0156-8.4102-16.688-16.527-21.328-8.1172-4.6367-17.742-5.8672-26.762-3.418l-63.281 17.371c60.84-140.11 199.66-233.34 356.18-233.34 214.92 0 388.17 173.33 388.17 388.17 0 214.83-173.25 388.23-388.17 388.23-176.25 0-330.22-118.14-375.48-288.42v-0.003906c-2.4062-9.0508-8.3164-16.777-16.422-21.469-8.1055-4.6953-17.746-5.9727-26.797-3.5547-9.0078 2.4102-16.695 8.2891-21.383 16.348-4.6875 8.0586-5.9961 17.648-3.6406 26.668 53.398 200.88 235.82 341.02 443.73 341.02 253.05 0 458.75-205.83 458.75-458.82 0-252.99-205.7-458.75-458.75-458.75zm-23.23 221.41c-9.3125 0.039062-18.234 3.7539-24.82 10.34-6.5859 6.582-10.301 15.504-10.336 24.816v260.02c-0.023438 6.2344 1.6016 12.359 4.7148 17.762 3.1094 5.3984 7.5977 9.8789 13 12.984l165.44 94.094c8.1523 4.6406 17.812 5.8438 26.855 3.3477 9.0391-2.4961 16.715-8.4883 21.328-16.652 4.6406-8.1523 5.8477-17.812 3.3516-26.855-2.4961-9.0391-8.4883-16.715-16.652-21.328l-147.45-83.895v-239.48c-0.039062-9.3594-3.793-18.32-10.438-24.914s-15.637-10.277-24.996-10.242z" fill="#fff" fill-rule="evenodd"/>
</svg>
