<?xml version="1.0" encoding="UTF-8"?>
<svg width="1200pt" height="1200pt" version="1.1" viewBox="0 0 1200 1200" xmlns="http://www.w3.org/2000/svg">
 <path d="m505.54 930.62h-157.44c-8.6914 0-15.746-7.0508-15.746-15.742v-299.14h-47.23c-6.3594 0-12.109-3.8438-14.547-9.7148-2.4414-5.8867-1.0859-12.656 3.4141-17.16l314.88-314.88c6.1406-6.1562 16.121-6.1562 22.262 0l314.88 314.88c4.5039 4.5039 5.8594 11.273 3.418 17.16-2.4414 5.8711-8.1875 9.7148-14.547 9.7148h-47.23v299.14c0 8.6914-7.0547 15.742-15.746 15.742h-157.44c-4.1719 0-8.1875-1.6523-11.129-4.6133-2.9609-2.9414-4.6133-6.957-4.6133-11.129v-188.93c0-8.6914-7.0547-15.742-15.746-15.742h-125.95c-8.6914 0-15.746 7.0508-15.746 15.742v188.93c0 4.1719-1.6523 8.1875-4.6133 11.129-2.9453 2.9609-6.957 4.6133-11.129 4.6133z" fill="#fff" fill-rule="evenodd"/>
</svg>
