<?xml version="1.0" encoding="UTF-8"?>
<svg width="1200pt" height="1200pt" version="1.1" viewBox="0 0 1200 1200" xmlns="http://www.w3.org/2000/svg">
 <path d="m84 1128c-12.938 0.23438-24.234-11.062-24-24v-912c0-66.141 53.859-120 120-120h840c66.141 0 120 53.859 120 120v600c0 66.141-53.859 120-120 120h-710.06l-209.02 208.92c-4.5469 4.6875-10.688 7.0781-16.922 7.0781zm816-828h-600c-13.219 0-24 10.781-24 24s10.781 24 24 24h600c13.219 0 24-10.781 24-24s-10.781-24-24-24zm0 168h-600c-13.219 0-24 10.781-24 24s10.781 24 24 24h600c13.219 0 24-10.781 24-24s-10.781-24-24-24zm0 168h-600c-13.219 0-24 10.781-24 24s10.781 24 24 24h600c13.219 0 24-10.781 24-24s-10.781-24-24-24z" fill="#fff"/>
</svg>
