<?xml version="1.0" encoding="UTF-8"?>
<svg width="1200pt" height="1200pt" version="1.1" viewBox="0 0 1200 1200" xmlns="http://www.w3.org/2000/svg">
 <path d="m853.68 750.96c-1.3203-1.3203-2.1602-3.2383-2.1602-5.1602v-230.28c0-130.56-100.08-238.2-227.52-250.32v-55.199c0-13.199-10.801-24-24-24s-24 10.801-24 24v55.199c-127.44 12.121-227.52 119.76-227.52 250.32v230.28c0 1.9219-0.83984 3.8398-2.1602 5.1602l-60.121 60.121c-10.441 10.441-16.199 24.359-16.199 39.121v18.359c0 30.602 24.84 55.441 55.441 55.441h168.24c8.5195 51 52.922 90 106.32 90s97.801-39 106.32-90h168.24c30.602 0 55.441-24.84 55.441-55.441v-18.359c0-14.762-5.7617-28.68-16.199-39.121zm-253.68 215.04c-26.762 0-49.199-17.762-56.879-42h113.76c-7.6836 24.238-30.121 42-56.883 42zm282-97.441c0 4.0781-3.3594 7.4414-7.4414 7.4414h-549.12c-4.0781 0-7.4414-3.3594-7.4414-7.4414v-18.359c0-1.9219 0.71875-3.8398 2.1602-5.1602l60.121-60.121c10.441-10.441 16.199-24.359 16.199-39.121v-230.28c0-112.2 91.32-203.52 203.52-203.52s203.52 91.32 203.52 203.52v230.28c0 14.762 5.7617 28.68 16.199 39.121l60.121 60.121c1.4414 1.3203 2.1602 3.2383 2.1602 5.1602zm-610.68-142.32c-4.6797 4.6797-10.801 7.0781-16.922 7.0781-6.1211 0-12.238-2.3984-16.922-7.0781-38.52-38.52-59.762-89.762-59.762-144.24 0-54.48 21.238-105.72 59.762-144.24 9.3594-9.3594 24.602-9.3594 33.961 0s9.3594 24.602 0 33.961c-29.52 29.52-45.719 68.641-45.719 110.28s16.199 80.879 45.719 110.28c9.2422 9.3555 9.2422 24.594-0.11719 33.953zm-84.84 50.883c9.3594 9.3594 9.3594 24.602 0 33.961-4.6797 4.6797-10.801 7.0781-16.922 7.0781s-12.238-2.3984-16.922-7.0781c-61.316-61.203-95.035-142.56-95.035-229.08s33.719-167.88 94.922-229.08c9.3594-9.3594 24.602-9.3594 33.961 0s9.3594 24.602 0 33.961c-52.086 52.078-80.883 121.44-80.883 195.12s28.797 143.04 80.879 195.12zm776.16-50.883c-4.6797 4.6797-10.801 7.0781-16.922 7.0781s-12.238-2.3984-16.922-7.0781c-9.3594-9.3594-9.3594-24.602 0-33.961 60.84-60.84 60.84-159.84 0-220.56-9.3594-9.3594-9.3594-24.602 0-33.961 9.3594-9.3594 24.602-9.3594 33.961 0 79.441 79.562 79.441 208.92-0.11719 288.48zm179.76-144.24c0 86.52-33.719 167.88-94.922 229.08-4.6797 4.6797-10.801 7.0781-16.922 7.0781-6.1211 0-12.238-2.3984-16.922-7.0781-9.3594-9.3594-9.3594-24.602 0-33.961 52.078-52.078 80.879-121.44 80.879-195.12 0-73.68-28.68-143.04-80.879-195.12-9.3594-9.3594-9.3594-24.602 0-33.961 9.3594-9.3594 24.602-9.3594 33.961 0 61.086 61.207 94.805 142.57 94.805 229.09z"/>
</svg>
