<?xml version="1.0" encoding="UTF-8"?>
<svg width="1200pt" height="1200pt" version="1.1" viewBox="0 0 1200 1200" xmlns="http://www.w3.org/2000/svg">
 <path d="m1176.4 905.07-411.54-798.91c-0.20312-0.33594-0.33594-0.67187-0.53906-1.0078-16.344-28.547-39.938-52.27-68.398-68.762-29.203-16.715-62.27-25.512-95.918-25.512-33.648 0-66.715 8.7969-95.914 25.512-28.516 16.465-52.16 40.188-68.52 68.762-0.12891 0.28516-0.28516 0.55469-0.46875 0.80469l-411.62 799.11c-15.312 29.363-23.375 61.965-23.508 95.078-0.078125 34.582 9.0977 68.559 26.578 98.398 17.477 29.707 42.988 53.871 73.598 69.711 27.316 13.914 57.57 21.066 88.223 20.855h823.2c30.637 0.19922 60.875-6.9414 88.188-20.82 30.578-15.855 56.062-40.016 73.523-69.707 17.504-29.836 26.707-63.812 26.652-98.402-0.14453-33.125-8.2109-65.738-23.531-95.113zm-508.11 135.72c-21.238 21.207-51.129 31.332-80.883 27.402-29.754-3.9336-55.988-21.477-70.988-47.473-15-25.992-17.059-57.484-5.5742-85.215 11.484-27.727 35.211-48.539 64.199-56.312 28.988-7.7773 59.941-1.6289 83.762 16.629s37.793 46.555 37.816 76.566c0.042969 25.664-10.156 50.285-28.332 68.402zm28.332-310.36c0 34.531-18.422 66.441-48.332 83.707-29.906 17.27-66.75 17.27-96.656 0-29.91-17.266-48.332-49.176-48.332-83.707v-399.89c0-34.531 18.422-66.441 48.332-83.707 29.906-17.27 66.75-17.27 96.656 0 29.91 17.266 48.332 49.176 48.332 83.707z"/>
</svg>
