<?xml version="1.0" encoding="UTF-8"?>
<svg width="1200pt" height="1200pt" version="1.1" viewBox="0 0 1200 1200" xmlns="http://www.w3.org/2000/svg">
 <path d="m180.66 280.78h260.76c27.234 0 48.891 21.797 48.844 49.031-0.09375 26.859-21.984 48.703-48.844 48.703h-260.76c-29.109 0-52.922 23.859-52.922 52.922v587.9c0 29.109 23.812 52.922 52.922 52.922h587.86c29.109 0 52.922-23.812 52.922-52.922v-268.74c0-27.234 21.797-48.891 48.938-48.844 26.859 0.046875 48.75 21.984 48.75 48.844v268.74c0 83.062-67.594 150.66-150.66 150.66h-587.81c-83.062 0-150.66-67.594-150.66-150.66v-587.9c0-83.062 67.594-150.66 150.66-150.66zm688.13-70.969 121.97 121.55 53.906-54.141c34.875-35.062 38.156-90.938 4.2656-124.87-23.672-23.672-56.297-30.469-87.844-20.25-13.781 4.4531-26.906 12.328-38.156 23.578zm53.203 190.6-122.11-121.74-302.63 302.68c-36.188 36.188-58.922 74.203-72.984 122.81l-29.625 102.42 101.91-29.484c48.703-14.109 87.562-37.406 123.52-73.5l301.92-303.24zm-553.5 188.06c-16.031 27.047-28.359 56.156-37.734 88.594l-54.141 187.26c-10.688 36.844 23.578 71.156 60.797 60.188l186.24-53.859c65.438-18.938 117.42-50.062 165.47-98.297l424.6-426.42c36.656-36.844 55.219-84.188 56.203-131.06 1.5469-69.094-35.203-132.71-96.891-164.76-71.859-37.406-161.68-21.094-219.28 36.469l-425.63 425.68c-23.766 23.766-43.406 48.797-59.672 76.219z" fill-rule="evenodd"/>
</svg>
