<?xml version="1.0" encoding="UTF-8"?>
<svg width="1200pt" height="1200pt" version="1.1" viewBox="0 0 1200 1200" xmlns="http://www.w3.org/2000/svg">
 <path d="m539.71 519.47h120.56v-73.453c0-33.141-27.141-60.281-60.281-60.281s-60.281 27.141-60.281 60.281zm60.281 56.812c-15.938 0-28.875 12.938-28.875 28.875 0 8.9062 4.0312 16.828 10.359 22.172 1.3594 1.125 1.9219 2.7656 1.5469 4.5l-15.047 68.625c-0.28125 1.4062 0 2.7188 0.89062 3.8438s2.1562 1.7344 3.5625 1.7344h55.078c1.4531 0 2.6719-0.60938 3.5625-1.7344s1.2188-2.4375 0.89062-3.8438l-15-68.625c-0.375-1.7344 0.1875-3.375 1.5469-4.5 6.3281-5.2969 10.359-13.266 10.359-22.172 0-15.938-12.938-28.875-28.875-28.875zm-348.79 31.5c-20.625-83.25-19.781-172.55-5.9062-267.66l1.2656-8.7656 8.2969-3.0469 340.08-124.74h10.172l340.08 124.74 8.2969 3.0469 1.2656 8.7656c13.828 95.109 14.719 184.4-5.9062 267.66-20.766 83.812-63.141 161.16-135.71 231.71-26.953 26.203-56.109 50.016-86.391 72.328-30.094 22.172-61.219 42.891-92.25 62.906-4.4062 2.8594-8.8125 5.6719-13.219 8.4844h-0.046875l-13.266 8.4844-7.9219 5.0625-7.9688-5.0625c-35.578-22.641-71.484-45.797-106.08-70.594-34.922-25.078-68.531-51.891-99.094-81.609-72.562-70.547-114.94-147.89-135.71-231.71zm340.6-441.61-364.45 133.69c-4.2656 1.5938-7.7812 4.0312-10.359 7.125-2.5781 3.1406-4.3125 7.0312-5.0156 11.531-34.125 213.98 4.2188 356.95 78.375 463.6 74.484 107.16 186.1 179.02 296.9 249.42 4.0312 2.5781 8.4375 3.8438 12.797 3.8438s8.7656-1.2656 12.797-3.8438c110.81-70.406 222.42-142.26 296.9-249.42 74.156-106.64 112.45-249.61 78.375-463.6-0.70312-4.4531-2.4375-8.3906-5.0156-11.531-2.5312-3.0938-6.0469-5.5312-10.359-7.125l-364.55-133.69c-2.7656-1.0312-5.5312-1.5469-8.2031-1.5469-2.7188 0.046875-5.4375 0.51562-8.2031 1.5469zm8.2031 67.078-326.68 119.81c-12.141 88.359-12.422 171.05 6.5625 247.64 19.453 78.562 59.297 151.18 127.6 217.6 29.484 28.641 61.969 54.562 95.719 78.797 31.547 22.641 64.219 43.875 96.75 64.641l5.2969-3.4219 13.219-8.4844c30.609-19.781 61.266-40.125 90.75-61.828 29.297-21.609 57.422-44.578 83.25-69.656 68.297-66.375 108.14-138.98 127.6-217.6 18.984-76.594 18.703-159.28 6.5625-247.64zm-110.34 286.22v-73.453c0-60.703 49.641-110.34 110.34-110.34s110.34 49.641 110.34 110.34v73.5h19.547c13.594 0 24.75 9.9375 24.75 22.125v199.08c0 12.141-11.156 22.125-24.75 22.125l-259.78-0.046875c-13.594 0-24.75-9.9375-24.75-22.125v-199.08c0-12.141 11.109-22.125 24.75-22.125z" fill="#fff" fill-rule="evenodd"/>
</svg>
