<?xml version="1.0" encoding="UTF-8"?>
<svg width="1200pt" height="1200pt" version="1.1" viewBox="0 0 1200 1200" xmlns="http://www.w3.org/2000/svg">
 <path d="m858 147.6c-195.6-195.6-514.8-195.6-710.4 0-195.6 195.6-195.6 514.8 0 710.4 175.2 175.2 447.6 194.4 643.2 56.398l261.6 261.6c33.602 33.602 88.801 33.602 122.4 0 33.602-33.602 33.602-88.801 0-122.4l-261.6-262.8c138-195.6 120-468-55.199-643.2zm-112.8 597.6c-134.4 134.4-351.6 134.4-484.8 0-134.4-134.4-134.4-351.6 0-484.8 134.4-133.2 351.6-134.4 484.8 0 133.2 133.2 133.2 350.4 0 484.8z"/>
</svg>
