<?xml version="1.0" encoding="UTF-8"?>
<svg width="1200pt" height="1200pt" version="1.1" viewBox="0 0 1200 1200" xmlns="http://www.w3.org/2000/svg">
 <path d="m600 356.4c-134.4 0-243.6 109.2-243.6 243.6 0 134.4 109.2 242.4 243.6 242.4s243.6-108 243.6-242.4-109.2-243.6-243.6-243.6zm0 374.4c-72 0-130.8-58.801-130.8-130.8s58.801-130.8 130.8-130.8 130.8 58.801 130.8 130.8-58.801 130.8-130.8 130.8z" fill="#fff"/>
 <path d="m1170 679.2v-158.4l-130.8-32.398c-10.801-42-27.602-82.801-49.199-120l69.602-115.2-112.8-112.8-115.2 69.602c-37.199-21.602-76.801-38.398-120-49.199l-32.402-130.8h-158.4l-32.398 130.8c-42 10.801-82.801 27.602-120 49.199l-115.2-69.602-112.8 112.8 69.602 115.2c-21.602 37.199-38.398 76.801-49.199 120l-130.8 32.402v158.4l130.8 32.398c10.801 42 27.602 82.801 49.199 120l-69.602 115.2 112.8 112.8 115.2-69.602c37.199 21.602 76.801 38.398 120 49.199l32.398 130.8h158.4l32.398-130.8c43.199-10.801 82.801-27.602 120-49.199l115.2 69.602 112.8-112.8-69.602-115.2c21.602-37.199 38.398-76.801 49.199-120zm-570 262.8c-188.4 0-342-153.6-342-342s153.6-342 342-342 342 153.6 342 342-153.6 342-342 342z" fill="#fff"/>
</svg>
