<?xml version="1.0" encoding="UTF-8"?>
<svg width="1200pt" height="1200pt" version="1.1" viewBox="0 0 1200 1200" xmlns="http://www.w3.org/2000/svg">
 <path d="m600 712.5c-109.36 0.125-214.21 43.621-291.55 120.95s-120.83 182.18-120.95 291.55c-0.003906 9.9492 3.9453 19.488 10.977 26.523 7.0352 7.0312 16.574 10.98 26.523 10.977h750c9.9492 0.003906 19.488-3.9453 26.523-10.977 7.0312-7.0352 10.98-16.574 10.977-26.523-0.125-109.36-43.621-214.21-120.95-291.55s-182.18-120.83-291.55-120.95zm-335.41 375c9.2266-82.504 48.535-158.71 110.41-214.06 61.879-55.344 141.98-85.941 225-85.941s163.12 30.598 225 85.941c61.879 55.348 101.19 131.55 110.41 214.06zm560.41-675c0-59.672-23.707-116.9-65.902-159.1-42.195-42.195-99.426-65.902-159.1-65.902s-116.9 23.707-159.1 65.902c-42.195 42.195-65.902 99.426-65.902 159.1s23.707 116.9 65.902 159.1c42.195 42.195 99.426 65.902 159.1 65.902 59.652-0.066406 116.84-23.793 159.03-65.973 42.18-42.184 65.906-99.375 65.973-159.03zm-375 0c0-39.781 15.805-77.938 43.934-106.07s66.285-43.934 106.07-43.934 77.938 15.805 106.07 43.934 43.934 66.285 43.934 106.07-15.805 77.938-43.934 106.07-66.285 43.934-106.07 43.934c-39.77-0.039062-77.898-15.855-106.02-43.977-28.121-28.125-43.938-66.254-43.977-106.02zm562.5-37.5v75c-0.050781 13.66-3.8438 27.047-10.965 38.707-7.1211 11.66-17.301 21.145-29.43 27.43-6.7773 44.141-29.105 84.406-62.953 113.54-33.852 29.129-76.996 45.207-121.65 45.328-13.398 0-25.777-7.1484-32.477-18.75-6.6992-11.602-6.6992-25.898 0-37.5 6.6992-11.602 19.078-18.75 32.477-18.75 25.387-0.058594 50.008-8.6992 69.863-24.516 19.855-15.82 33.777-37.891 39.504-62.625-21.383-13.762-34.324-37.43-34.367-62.859v-75c0.023438-20.387 8.3828-39.875 23.133-53.941-19.359-60.551-57.457-113.38-108.8-150.87-51.34-37.484-113.27-57.688-176.84-57.688s-125.5 20.203-176.84 57.688c-51.34 37.488-89.438 90.32-108.8 150.87 14.75 14.066 23.109 33.555 23.133 53.941v75c0 26.793-14.293 51.555-37.5 64.953-23.207 13.395-51.793 13.395-75 0-23.207-13.398-37.5-38.16-37.5-64.953v-75c0.058594-16.133 5.3281-31.816 15.02-44.711 9.6914-12.898 23.293-22.316 38.773-26.859 23.367-76.934 70.852-144.31 135.44-192.2s142.86-73.734 223.27-73.734 158.68 25.852 223.27 73.734 112.07 115.26 135.44 192.2c15.48 4.543 29.082 13.961 38.773 26.859 9.6914 12.895 14.961 28.578 15.02 44.711z" fill="#fff"/>
</svg>
