<?xml version="1.0" encoding="UTF-8"?>
<svg width="1200pt" height="1200pt" version="1.1" viewBox="0 0 1200 1200" xmlns="http://www.w3.org/2000/svg">
 <path d="m768.74 131.21v-37.453c0-6.8438-1.875-13.219-5.0156-18.75h173.76c10.312 0 18.75 8.3906 18.75 18.75v1012.5c0 10.359-8.4375 18.75-18.75 18.75h-750c-10.359 0-18.75-8.3906-18.75-18.75v-1012.5c0-10.359 8.3906-18.75 18.75-18.75h173.76c-3.1875 5.5312-5.0156 11.906-5.0156 18.75v37.453h-75c-20.719 0-37.5 16.828-37.5 37.547v862.5c0 20.719 16.781 37.547 37.5 37.547h562.5c20.719 0 37.5-16.828 37.5-37.547v-862.5c0-20.719-16.781-37.547-37.5-37.547zm-18.75-37.453v93.797c0 14.859-5.9531 29.203-16.5 39.703-10.5 10.594-24.797 16.5-39.75 16.5h-262.5c-14.953 0-29.25-5.9062-39.75-16.5-10.547-10.5-16.5-24.844-16.5-39.703v-93.797c0-10.359 8.3906-18.75 18.75-18.75h337.5c10.312 0 18.75 8.3906 18.75 18.75zm-300 168.79v787.45h-168.74c-10.359 0-18.75-8.3906-18.75-18.75v-862.5c0-10.359 8.3906-18.75 18.75-18.75h75v37.547c0 19.828 7.875 38.906 21.984 53.016 14.062 14.016 33.094 21.984 53.016 21.984zm-126.52 490.5 24.984 28.172c3.5625 3.9844 8.6719 6.2344 14.016 6.2344s10.5-2.25 14.016-6.2344l50.016-56.297c6.8438-7.6875 6.1875-19.547-1.5469-26.391-7.7344-6.9375-19.641-6.2344-26.484 1.5469l-36 40.406-10.969-12.281c-6.8906-7.7812-18.75-8.4844-26.484-1.5469-7.7344 6.8438-8.4375 18.656-1.5469 26.391zm0-187.45 24.984 28.078c3.5625 4.0781 8.6719 6.3281 14.016 6.3281s10.5-2.25 14.016-6.3281l50.016-56.203c6.8438-7.7344 6.1875-19.641-1.5469-26.484-7.7344-6.8438-19.641-6.1406-26.484 1.5469l-36 40.5-10.969-12.375c-6.8906-7.7344-18.75-8.4375-26.484-1.5469-7.7344 6.8438-8.4375 18.75-1.5469 26.484zm0 356.21 24.984 28.125c3.5625 4.0781 8.6719 6.3281 14.016 6.3281s10.5-2.25 14.016-6.3281l50.016-56.203c6.8438-7.7344 6.1875-19.641-1.5469-26.484-7.7344-6.8438-19.641-6.1406-26.484 1.5469l-36 40.5-10.969-12.375c-6.8906-7.7344-18.75-8.4375-26.484-1.5469-7.7344 6.8906-8.4375 18.75-1.5469 26.438zm0-543.71 24.984 28.125c3.5625 3.9844 8.6719 6.3281 14.016 6.3281s10.5-2.3438 14.016-6.3281l50.016-56.203c6.8438-7.8281 6.1875-19.641-1.5469-26.484-7.7344-6.9375-19.641-6.2344-26.484 1.5469l-36 40.406-10.969-12.281c-6.8906-7.8281-18.75-8.4375-26.484-1.5938-7.7344 6.8906-8.4375 18.703-1.5469 26.484zm445.26-228.1h75c10.312 0 18.75 8.3906 18.75 18.75v862.5c0 10.359-8.4375 18.75-18.75 18.75h-356.26v-787.45h206.26c19.875 0 38.953-7.9688 53.016-21.984 14.062-14.109 21.984-33.188 21.984-53.016zm-206.26 562.45h187.5c10.312 0 18.75-8.2969 18.75-18.656s-8.4375-18.797-18.75-18.797h-187.5c-10.359 0-18.75 8.4375-18.75 18.797s8.3906 18.656 18.75 18.656zm0-299.9h168.74c10.312 0 18.75-8.4375 18.75-18.797s-8.4375-18.75-18.75-18.75h-168.74c-10.359 0-18.75 8.3906-18.75 18.75s8.3906 18.797 18.75 18.797zm0 543.71h168.74c10.312 0 18.75-8.4375 18.75-18.797s-8.4375-18.656-18.75-18.656h-168.74c-10.359 0-18.75 8.2969-18.75 18.656s8.3906 18.797 18.75 18.797zm0-356.26h131.26c10.312 0 18.75-8.3906 18.75-18.75s-8.4375-18.703-18.75-18.703h-131.26c-10.359 0-18.75 8.3438-18.75 18.703s8.3906 18.75 18.75 18.75zm0 187.45h93.75c10.312 0 18.75-8.2969 18.75-18.656s-8.4375-18.797-18.75-18.797h-93.75c-10.359 0-18.75 8.4375-18.75 18.797s8.3906 18.656 18.75 18.656zm0 93.797h187.5c10.312 0 18.75-8.4375 18.75-18.797 0-10.266-8.4375-18.656-18.75-18.656h-187.5c-10.359 0-18.75 8.3906-18.75 18.656 0 10.359 8.3906 18.797 18.75 18.797zm0-356.26h187.5c10.312 0 18.75-8.3906 18.75-18.75s-8.4375-18.703-18.75-18.703h-187.5c-10.359 0-18.75 8.3438-18.75 18.703s8.3906 18.75 18.75 18.75zm0-187.45h131.26c10.312 0 18.75-8.4375 18.75-18.797s-8.4375-18.75-18.75-18.75h-131.26c-10.359 0-18.75 8.3906-18.75 18.75s8.3906 18.797 18.75 18.797z" fill="#fff" fill-rule="evenodd"/>
</svg>
