<?xml version="1.0" encoding="UTF-8"?>
<svg width="1200pt" height="1200pt" version="1.1" viewBox="0 0 1200 1200" xmlns="http://www.w3.org/2000/svg">
 <path d="m412.5 474.98c0 103.59 83.953 187.5 187.5 187.5s187.5-83.906 187.5-187.5c0-103.55-83.953-187.5-187.5-187.5s-187.5 83.953-187.5 187.5z" fill="#12b0fb"/>
 <path d="m897.28 986.44c115.69-89.156 190.22-229.08 190.22-386.44 0-269.26-218.26-487.5-487.5-487.5s-487.5 218.26-487.5 487.5c0 157.36 74.531 297.28 190.22 386.44l0.375 0.51562 0.46875 0.09375c82.125 63 184.92 100.45 296.44 100.45s214.31-37.453 296.44-100.45l0.46875-0.09375zm6.8906-107.81c-54.516-113.06-170.21-191.11-304.18-191.11s-249.66 78.047-304.18 191.11c-67.266-73.406-108.33-171.24-108.33-278.63 0-227.81 184.69-412.5 412.5-412.5 227.81 0 412.5 184.69 412.5 412.5 0 107.39-41.062 205.22-108.33 278.63z" fill="#12b0fb" fill-rule="evenodd"/>
</svg>
