<?xml version="1.0" encoding="UTF-8"?>
<svg width="1200pt" height="1200pt" version="1.1" viewBox="0 0 1200 1200" xmlns="http://www.w3.org/2000/svg">
 <path d="m877.31 127.03c-16.359 0-32.719 6.2344-45.234 18.609l-535.36 532.13c-4.4062 4.4062-6.8906 10.359-6.8906 16.594v187.5c0 6.2344 2.4844 12.188 6.8906 16.594s10.406 6.8906 16.641 6.8906h187.4c6.0469 0 12.094-2.2969 16.688-6.8906 512.06-511.82 533.72-533.72 533.72-533.72 24.75-25.031 24.797-65.25 0.28125-90.422l-129.14-129.14c-12.562-12.234-28.641-18.141-44.906-18.141h-0.09375zm-197.95 0h-491.63v0.046875c-35.156 0.375-63.562 28.875-63.75 64.078v817.55c0.1875 35.203 28.594 63.703 63.75 64.125h818.34c35.156-0.42188 63.562-28.922 63.75-64.125v-491.21c0-12.797-10.406-23.203-23.25-23.203s-23.25 10.359-23.25 23.203c-0.1875 490.6-0.1875 490.78-0.1875 490.78 0 9.7031-7.6875 17.578-17.297 17.906h-817.87c-9.6094-0.32813-17.344-8.2031-17.344-17.906v-816.71c0-9.7031 7.7344-17.578 17.344-17.906l491.34-0.1875c12.844 0 23.25-10.359 23.25-23.203s-10.406-23.25-23.203-23.25z" fill="#fff"/>
</svg>
